<svg width="21" height="24" viewBox="0 0 21 24" fill="none" xmlns="http://www.w3.org/2000/svg">
<path d="M17.8208 5.562C17.6688 5.48363 17.521 5.39752 17.3778 5.304C16.9613 5.02894 16.5796 4.70459 16.2408 4.338C15.3918 3.367 15.0748 2.382 14.9588 1.693H14.9628C14.8658 1.12 14.9058 0.75 14.9128 0.75H11.0478V15.693C11.0492 15.893 11.0465 16.0913 11.0398 16.288L11.0358 16.361C11.0358 16.3717 11.0348 16.3827 11.0328 16.394V16.403C10.9922 16.939 10.8205 17.4569 10.5328 17.9109C10.2451 18.365 9.85018 18.7414 9.38283 19.007C8.89572 19.2855 8.34394 19.431 7.78283 19.429C5.98283 19.429 4.52283 17.961 4.52283 16.148C4.52283 14.335 5.98283 12.866 7.78283 12.866C8.12383 12.866 8.46283 12.92 8.78683 13.026L8.79183 9.09C7.80785 8.96317 6.80826 9.04165 5.85612 9.32047C4.90398 9.5993 4.01996 10.0724 3.25983 10.71C2.59393 11.2888 2.0339 11.9791 1.60483 12.75C1.44183 13.031 0.82583 14.162 0.75183 15.996C0.70483 17.036 1.01783 18.116 1.16683 18.561V18.571C1.25983 18.833 1.62383 19.729 2.21583 20.484C2.6937 21.0896 3.25768 21.6219 3.88983 22.064V22.054L3.89883 22.064C5.76883 23.334 7.84383 23.251 7.84383 23.251C8.20283 23.236 9.40583 23.251 10.7718 22.604C12.2868 21.886 13.1488 20.817 13.1488 20.817C13.7004 20.1785 14.1387 19.4503 14.4448 18.664C14.7948 17.744 14.9108 16.642 14.9108 16.202V8.273C14.9578 8.301 15.5828 8.714 15.5828 8.714C15.5828 8.714 16.4828 9.291 17.8858 9.666C18.8918 9.933 20.2488 9.99 20.2488 9.99V6.153C19.7738 6.205 18.8088 6.055 17.8198 5.563" fill="white"/>
</svg>
