<svg width="25" height="24" viewBox="0 0 25 24" fill="none" xmlns="http://www.w3.org/2000/svg">
<path d="M12.4998 2.41531e-06C9.70187 -0.00177203 6.99124 0.974216 4.83663 2.75921C2.68202 4.54421 1.21889 7.02599 0.700204 9.77545C0.181522 12.5249 0.639905 15.3692 1.9961 17.8165C3.35229 20.2638 5.52102 22.1603 8.12732 23.178C8.02232 22.2285 7.92632 20.769 8.16782 19.7325C8.38682 18.795 9.57482 13.767 9.57482 13.767C9.57482 13.767 9.21632 13.0485 9.21632 11.9865C9.21632 10.317 10.1838 9.072 11.3883 9.072C12.4113 9.072 12.9063 9.84 12.9063 10.7625C12.9063 11.7915 12.2508 13.3305 11.9118 14.757C11.6298 15.951 12.5118 16.926 13.6893 16.926C15.8223 16.926 17.4618 14.676 17.4618 11.43C17.4618 8.5575 15.3963 6.549 12.4488 6.549C9.03482 6.549 7.03082 9.1095 7.03082 11.7555C7.03082 12.7875 7.42832 13.893 7.92332 14.4945C7.96595 14.5398 7.99609 14.5955 8.01081 14.6559C8.02554 14.7164 8.02433 14.7796 8.00732 14.8395C7.91582 15.2175 7.71332 16.0335 7.67432 16.2C7.62182 16.419 7.50032 16.4655 7.27232 16.3605C5.77232 15.663 4.83632 13.4715 4.83632 11.7105C4.83632 7.926 7.58732 4.4505 12.7653 4.4505C16.9278 4.4505 20.1633 7.416 20.1633 11.3805C20.1633 15.516 17.5548 18.8445 13.9368 18.8445C12.7203 18.8445 11.5773 18.213 11.1858 17.466L10.4388 20.319C10.1673 21.3615 9.43532 22.668 8.94632 23.4645C10.5963 23.9747 12.3369 24.1227 14.0493 23.8984C15.7617 23.6741 17.4055 23.0829 18.8685 22.1651C20.3314 21.2472 21.579 20.0244 22.526 18.5802C23.4731 17.136 24.0972 15.5044 24.3558 13.7968C24.6144 12.0893 24.5013 10.346 24.0244 8.68613C23.5475 7.02626 22.7179 5.4889 21.5923 4.17906C20.4667 2.86921 19.0717 1.81776 17.5025 1.09652C15.9333 0.375287 14.2268 0.00126345 12.4998 2.41531e-06Z" fill="white"/>
</svg>
