<svg width="24" height="24" viewBox="0 0 24 24" fill="none" xmlns="http://www.w3.org/2000/svg">
<path d="M20.364 12.7069C20.5514 12.5193 20.6567 12.265 20.6567 11.9999C20.6567 11.7347 20.5514 11.4804 20.364 11.2929L14.707 5.63585C14.6147 5.54034 14.5044 5.46416 14.3824 5.41175C14.2604 5.35934 14.1291 5.33176 13.9964 5.3306C13.8636 5.32945 13.7319 5.35475 13.609 5.40503C13.4861 5.45531 13.3744 5.52957 13.2806 5.62346C13.1867 5.71735 13.1124 5.829 13.0621 5.9519C13.0118 6.0748 12.9865 6.20648 12.9877 6.33926C12.9889 6.47204 13.0164 6.60325 13.0689 6.72526C13.1213 6.84726 13.1974 6.95761 13.293 7.04985L17.243 10.9999H3.99995C3.73474 10.9999 3.48038 11.1052 3.29284 11.2927C3.10531 11.4803 2.99995 11.7346 2.99995 11.9999C2.99995 12.2651 3.10531 12.5194 3.29284 12.707C3.48038 12.8945 3.73474 12.9999 3.99995 12.9999H17.243L13.293 16.9499C13.1108 17.1385 13.01 17.3911 13.0123 17.6533C13.0146 17.9155 13.1197 18.1663 13.3051 18.3517C13.4905 18.5371 13.7414 18.6423 14.0036 18.6445C14.2657 18.6468 14.5183 18.546 14.707 18.3639L20.364 12.7069Z" fill="#004953"/>
</svg>
