<?xml version="1.0" encoding="UTF-8"?>
<svg id="Layer_1" data-name="Layer 1" xmlns="http://www.w3.org/2000/svg" viewBox="0 0 720 720">
  <defs>
    <style>
      .cls-1 {
        fill: #fff;
        stroke-width: 0px;
      }
    </style>
  </defs>
  <path class="cls-1" d="m515.3,430.4c-.23,7.16-2.26,16.28-5.77,25.03-2.12,5.28-5.94,9.43-10.16,13.16-9.92,8.76-21.07,15.43-33.96,18.77-5.38,1.4-10.92,2.31-16.43,3.07-6.41.89-12.73-.33-18.96-1.74-15.29-3.45-29.97-8.84-44.64-14.24-13.49-4.96-26.66-10.58-39.03-17.97-18.18-10.86-34.55-23.99-49.61-38.82-16.41-16.16-30.85-33.93-43.9-52.9-5.83-8.46-11.87-16.77-16.66-25.89-5.67-10.81-10.47-21.96-12.79-34.01-5.3-27.59.63-52.07,19.66-73.29,6.78-7.56,15-11.24,24.61-12.73,4.63-.71,9.26-1.31,13.98-1.26,3.66.05,6.57,1.44,8.94,4.1,2.42,2.71,4.1,5.87,5.49,9.21,6.91,16.55,13.82,33.1,20.73,49.65.85,2.02,1.77,4.01,2.64,6.02,1.61,3.7,1.46,7.33-.29,10.97-2.43,5.06-5.24,9.83-9.02,14.04-3.46,3.86-6.59,8.01-10.32,11.65-.64.62-1.19,1.35-1.73,2.06-2.08,2.77-2.63,5.75-1.13,8.98.34.72.63,1.47,1.04,2.15,15.7,26.19,35.39,48.67,60.98,65.7,10.33,6.87,21.25,12.58,32.67,17.4,2.29.97,4.53,2.08,6.83,3.02,5.97,2.45,9.43,1.7,13.6-3.1,7.98-9.19,15.96-18.38,23.03-28.33,3.3-4.64,6.7-5.7,12.25-4.22,3.68.98,7.12,2.56,10.56,4.13,16.76,7.66,33.28,15.82,49.83,23.93,7.15,3.5,7.6,4.47,7.58,15.47Z"/>
  <path class="cls-1" d="m658.5,320.47c-1.49-13.2-3.76-26.24-7-39.11-6.45-25.58-16.2-49.85-29.29-72.77-16.94-29.68-38.41-55.62-64.36-77.83-22.44-19.21-47.23-34.71-74.34-46.48-33.1-14.37-67.71-22.35-103.72-24.08-15.85-.76-31.71-.36-47.52,1.5-11.6,1.36-23.09,3.21-34.46,5.87-28.46,6.65-55.36,17.23-80.66,31.88-34.39,19.91-63.63,45.68-87.64,77.34-20.95,27.62-36.47,58.04-46.58,91.21-6.89,22.62-10.96,45.75-12.08,69.35-.77,16.25-.43,32.51,1.54,48.71,1.36,11.2,3.2,22.29,5.79,33.26,6.8,28.86,17.76,56.04,32.96,81.49,1.18,1.98,1.37,3.61.62,5.8-7.82,22.83-15.53,45.69-23.28,68.54-7.88,23.23-15.77,46.45-23.65,69.68-1.69,4.99-3.35,10-5.12,15.28,1.43.2,2.24-.27,3.06-.53,21.38-6.77,42.76-13.56,64.13-20.36,31.16-9.91,62.31-19.82,93.45-29.78,1.75-.56,3.14-.45,4.77.46,9.08,5.04,18.5,9.38,28.12,13.29,23.48,9.55,47.77,16,72.92,19.32,12.28,1.62,24.61,2.4,36.98,2.61,7.98.14,15.95-.32,23.92-.85,11.16-.75,22.21-2.22,33.2-4.26,31.76-5.88,61.71-16.77,89.87-32.55,35.84-20.08,66.21-46.5,91.05-79.23,21.7-28.6,37.56-60.17,47.62-94.64,6.6-22.6,10.28-45.7,11.25-69.2.6-14.66.1-29.32-1.55-43.93Zm-45.23,36.19c-.63,25.19-4.66,49.78-12.78,73.67-10.17,29.92-25.5,56.91-46.04,80.94-21.21,24.81-46.32,44.69-75.33,59.65-23.14,11.93-47.55,20.01-73.25,24.18-10.05,1.63-20.15,2.54-30.33,3.11-9.2.51-18.37.27-27.52-.37-26.24-1.84-51.61-7.64-76.02-17.54-14.28-5.79-27.91-12.82-40.85-21.19-1.59-1.03-2.93-1.17-4.7-.61-29.81,9.53-59.64,19.01-89.48,28.48-.82.26-1.62.71-2.59.56-.45-1.09.24-1.97.53-2.85,9.61-28.43,19.23-56.86,28.91-85.27.62-1.82.62-3.15-.61-4.87-18.92-26.45-32.15-55.5-39.49-87.2-2.52-10.89-4.25-21.9-5.23-33.05-.78-8.96-1.22-17.91-1-26.9.74-29.81,6.51-58.59,17.72-86.24,10.94-27,26.17-51.33,45.8-72.85,35.56-39,79.17-64.25,130.6-75.95,11.77-2.68,23.72-4.28,35.78-5.15,10.58-.76,21.16-.88,31.72-.3,28.83,1.56,56.59,7.97,83.2,19.24,23.24,9.84,44.49,22.93,63.73,39.24,22.77,19.29,41.49,41.96,56.1,68,13,23.16,21.91,47.82,26.88,73.89,1.58,8.32,2.73,16.72,3.34,25.18.58,8.06,1.1,16.12.9,24.21Z"/>
  <path class="cls-1" d="m515.3,430.4c-.23,7.16-2.26,16.28-5.77,25.03-2.12,5.28-5.94,9.43-10.16,13.16-9.92,8.76-21.07,15.43-33.96,18.77-5.38,1.4-10.92,2.31-16.43,3.07-6.41.89-12.73-.33-18.96-1.74-15.29-3.45-29.97-8.84-44.64-14.24-13.49-4.96-26.66-10.58-39.03-17.97-18.18-10.86-34.55-23.99-49.61-38.82-16.41-16.16-30.85-33.93-43.9-52.9-5.83-8.46-11.87-16.77-16.66-25.89-5.67-10.81-10.47-21.96-12.79-34.01-5.3-27.59.63-52.07,19.66-73.29,6.78-7.56,15-11.24,24.61-12.73,4.63-.71,9.26-1.31,13.98-1.26,3.66.05,6.57,1.44,8.94,4.1,2.42,2.71,4.1,5.87,5.49,9.21,6.91,16.55,13.82,33.1,20.73,49.65.85,2.02,1.77,4.01,2.64,6.02,1.61,3.7,1.46,7.33-.29,10.97-2.43,5.06-5.24,9.83-9.02,14.04-3.46,3.86-6.59,8.01-10.32,11.65-.64.62-1.19,1.35-1.73,2.06-2.08,2.77-2.63,5.75-1.13,8.98.34.72.63,1.47,1.04,2.15,15.7,26.19,35.39,48.67,60.98,65.7,10.33,6.87,21.25,12.58,32.67,17.4,2.29.97,4.53,2.08,6.83,3.02,5.97,2.45,9.43,1.7,13.6-3.1,7.98-9.19,15.96-18.38,23.03-28.33,3.3-4.64,6.7-5.7,12.25-4.22,3.68.98,7.12,2.56,10.56,4.13,16.76,7.66,33.28,15.82,49.83,23.93,7.15,3.5,7.6,4.47,7.58,15.47Z"/>
  <path class="cls-1" d="m515.3,430.4c-.23,7.16-2.26,16.28-5.77,25.03-2.12,5.28-5.94,9.43-10.16,13.16-9.92,8.76-21.07,15.43-33.96,18.77-5.38,1.4-10.92,2.31-16.43,3.07-6.41.89-12.73-.33-18.96-1.74-15.29-3.45-29.97-8.84-44.64-14.24-13.49-4.96-26.66-10.58-39.03-17.97-18.18-10.86-34.55-23.99-49.61-38.82-16.41-16.16-30.85-33.93-43.9-52.9-5.83-8.46-11.87-16.77-16.66-25.89-5.67-10.81-10.47-21.96-12.79-34.01-5.3-27.59.63-52.07,19.66-73.29,6.78-7.56,15-11.24,24.61-12.73,4.63-.71,9.26-1.31,13.98-1.26,3.66.05,6.57,1.44,8.94,4.1,2.42,2.71,4.1,5.87,5.49,9.21,6.91,16.55,13.82,33.1,20.73,49.65.85,2.02,1.77,4.01,2.64,6.02,1.61,3.7,1.46,7.33-.29,10.97-2.43,5.06-5.24,9.83-9.02,14.04-3.46,3.86-6.59,8.01-10.32,11.65-.64.62-1.19,1.35-1.73,2.06-2.08,2.77-2.63,5.75-1.13,8.98.34.72.63,1.47,1.04,2.15,15.7,26.19,35.39,48.67,60.98,65.7,10.33,6.87,21.25,12.58,32.67,17.4,2.29.97,4.53,2.08,6.83,3.02,5.97,2.45,9.43,1.7,13.6-3.1,7.98-9.19,15.96-18.38,23.03-28.33,3.3-4.64,6.7-5.7,12.25-4.22,3.68.98,7.12,2.56,10.56,4.13,16.76,7.66,33.28,15.82,49.83,23.93,7.15,3.5,7.6,4.47,7.58,15.47Z"/>
</svg>